<?xml version="1.0" encoding="UTF-8" standalone="no"?>
<!-- Created with Inkscape (http://www.inkscape.org/) -->

<svg
   xmlns:dc="http://purl.org/dc/elements/1.1/"
   xmlns:cc="http://creativecommons.org/ns#"
   xmlns:rdf="http://www.w3.org/1999/02/22-rdf-syntax-ns#"
   xmlns:svg="http://www.w3.org/2000/svg"
   xmlns="http://www.w3.org/2000/svg"
   xmlns:sodipodi="http://sodipodi.sourceforge.net/DTD/sodipodi-0.dtd"
   xmlns:inkscape="http://www.inkscape.org/namespaces/inkscape"
   width="428.01266mm"
   height="394.90411mm"
   viewBox="0 0 428.01268 394.90411"
   version="1.1"
   id="svg8"
   inkscape:version="0.92.4 (5da689c313, 2019-01-14)"
   sodipodi:docname="signin1.svg">
  <defs
     id="defs2">
    <inkscape:path-effect
       effect="bspline"
       id="path-effect885"
       is_visible="true"
       weight="33.333333"
       steps="2"
       helper_size="0"
       apply_no_weight="true"
       apply_with_weight="true"
       only_selected="false" />
    <inkscape:path-effect
       effect="simplify"
       id="path-effect883"
       is_visible="true"
       steps="1"
       threshold="0.0129582"
       smooth_angles="360"
       helper_size="0"
       simplify_individual_paths="false"
       simplify_just_coalesce="false"
       simplifyindividualpaths="false"
       simplifyJustCoalesce="false" />
    <inkscape:path-effect
       effect="simplify"
       id="path-effect883-7"
       is_visible="true"
       steps="1"
       threshold="0.0129582"
       smooth_angles="360"
       helper_size="0"
       simplify_individual_paths="false"
       simplify_just_coalesce="false"
       simplifyindividualpaths="false"
       simplifyJustCoalesce="false" />
    <inkscape:path-effect
       effect="bspline"
       id="path-effect885-1"
       is_visible="true"
       weight="33.333333"
       steps="2"
       helper_size="0"
       apply_no_weight="true"
       apply_with_weight="true"
       only_selected="false" />
    <inkscape:path-effect
       effect="simplify"
       id="path-effect883-3"
       is_visible="true"
       steps="1"
       threshold="0.0129582"
       smooth_angles="360"
       helper_size="0"
       simplify_individual_paths="false"
       simplify_just_coalesce="false"
       simplifyindividualpaths="false"
       simplifyJustCoalesce="false" />
    <inkscape:path-effect
       effect="bspline"
       id="path-effect885-4"
       is_visible="true"
       weight="33.333333"
       steps="2"
       helper_size="0"
       apply_no_weight="true"
       apply_with_weight="true"
       only_selected="false" />
    <inkscape:path-effect
       effect="simplify"
       id="path-effect883-4"
       is_visible="true"
       steps="1"
       threshold="0.0129582"
       smooth_angles="360"
       helper_size="0"
       simplify_individual_paths="false"
       simplify_just_coalesce="false"
       simplifyindividualpaths="false"
       simplifyJustCoalesce="false" />
    <inkscape:path-effect
       effect="bspline"
       id="path-effect885-2"
       is_visible="true"
       weight="33.333333"
       steps="2"
       helper_size="0"
       apply_no_weight="true"
       apply_with_weight="true"
       only_selected="false" />
    <inkscape:path-effect
       effect="simplify"
       id="path-effect883-2"
       is_visible="true"
       steps="1"
       threshold="0.0129582"
       smooth_angles="360"
       helper_size="0"
       simplify_individual_paths="false"
       simplify_just_coalesce="false"
       simplifyindividualpaths="false"
       simplifyJustCoalesce="false" />
    <inkscape:path-effect
       effect="bspline"
       id="path-effect885-29"
       is_visible="true"
       weight="33.333333"
       steps="2"
       helper_size="0"
       apply_no_weight="true"
       apply_with_weight="true"
       only_selected="false" />
    <inkscape:path-effect
       effect="simplify"
       id="path-effect883-34"
       is_visible="true"
       steps="1"
       threshold="0.0129582"
       smooth_angles="360"
       helper_size="0"
       simplify_individual_paths="false"
       simplify_just_coalesce="false"
       simplifyindividualpaths="false"
       simplifyJustCoalesce="false" />
    <inkscape:path-effect
       effect="bspline"
       id="path-effect885-7"
       is_visible="true"
       weight="33.333333"
       steps="2"
       helper_size="0"
       apply_no_weight="true"
       apply_with_weight="true"
       only_selected="false" />
    <inkscape:path-effect
       effect="simplify"
       id="path-effect883-9"
       is_visible="true"
       steps="1"
       threshold="0.0129582"
       smooth_angles="360"
       helper_size="0"
       simplify_individual_paths="false"
       simplify_just_coalesce="false"
       simplifyindividualpaths="false"
       simplifyJustCoalesce="false" />
    <inkscape:path-effect
       effect="bspline"
       id="path-effect885-5"
       is_visible="true"
       weight="33.333333"
       steps="2"
       helper_size="0"
       apply_no_weight="true"
       apply_with_weight="true"
       only_selected="false" />
    <inkscape:path-effect
       effect="simplify"
       id="path-effect883-0"
       is_visible="true"
       steps="1"
       threshold="0.0129582"
       smooth_angles="360"
       helper_size="0"
       simplify_individual_paths="false"
       simplify_just_coalesce="false"
       simplifyindividualpaths="false"
       simplifyJustCoalesce="false" />
    <inkscape:path-effect
       effect="bspline"
       id="path-effect885-43"
       is_visible="true"
       weight="33.333333"
       steps="2"
       helper_size="0"
       apply_no_weight="true"
       apply_with_weight="true"
       only_selected="false" />
    <inkscape:path-effect
       effect="simplify"
       id="path-effect883-04"
       is_visible="true"
       steps="1"
       threshold="0.0129582"
       smooth_angles="360"
       helper_size="0"
       simplify_individual_paths="false"
       simplify_just_coalesce="false"
       simplifyindividualpaths="false"
       simplifyJustCoalesce="false" />
    <inkscape:path-effect
       effect="bspline"
       id="path-effect885-0"
       is_visible="true"
       weight="33.333333"
       steps="2"
       helper_size="0"
       apply_no_weight="true"
       apply_with_weight="true"
       only_selected="false" />
    <inkscape:path-effect
       effect="simplify"
       id="path-effect883-95"
       is_visible="true"
       steps="1"
       threshold="0.0129582"
       smooth_angles="360"
       helper_size="0"
       simplify_individual_paths="false"
       simplify_just_coalesce="false"
       simplifyindividualpaths="false"
       simplifyJustCoalesce="false" />
    <inkscape:path-effect
       effect="bspline"
       id="path-effect885-51"
       is_visible="true"
       weight="33.333333"
       steps="2"
       helper_size="0"
       apply_no_weight="true"
       apply_with_weight="true"
       only_selected="false" />
    <inkscape:path-effect
       effect="simplify"
       id="path-effect883-02"
       is_visible="true"
       steps="1"
       threshold="0.0129582"
       smooth_angles="360"
       helper_size="0"
       simplify_individual_paths="false"
       simplify_just_coalesce="false"
       simplifyindividualpaths="false"
       simplifyJustCoalesce="false" />
    <inkscape:path-effect
       effect="bspline"
       id="path-effect885-45"
       is_visible="true"
       weight="33.333333"
       steps="2"
       helper_size="0"
       apply_no_weight="true"
       apply_with_weight="true"
       only_selected="false" />
  </defs>
  <sodipodi:namedview
     id="base"
     pagecolor="#ffffff"
     bordercolor="#666666"
     borderopacity="1.0"
     inkscape:pageopacity="0.0"
     inkscape:pageshadow="2"
     inkscape:zoom="0.175"
     inkscape:cx="-79.882069"
     inkscape:cy="1092.8127"
     inkscape:document-units="mm"
     inkscape:current-layer="g1191"
     showgrid="false"
     showguides="false"
     inkscape:window-width="1366"
     inkscape:window-height="705"
     inkscape:window-x="1358"
     inkscape:window-y="254"
     inkscape:window-maximized="1"
     fit-margin-top="10"
     fit-margin-left="10"
     fit-margin-right="10"
     fit-margin-bottom="10"
     units="mm"
     inkscape:snap-nodes="false"
     inkscape:snap-global="false" />
  <metadata
     id="metadata5">
    <rdf:RDF>
      <cc:Work
         rdf:about="">
        <dc:format>image/svg+xml</dc:format>
        <dc:type
           rdf:resource="http://purl.org/dc/dcmitype/StillImage" />
        <dc:title />
      </cc:Work>
    </rdf:RDF>
  </metadata>
  <g
     inkscape:label="Layer 1"
     inkscape:groupmode="layer"
     id="layer1"
     transform="translate(161.55572,41.337823)">
    <g
       id="g1158"
       transform="translate(0.07597701,19.145176)">
      <g
         id="g1191">
        <g
           id="g959"
           style="fill:#ffffff;fill-opacity:0.56565654;stroke:#ffffff;stroke-opacity:0.24747474">
          <path
             style="fill:#ffffff;fill-opacity:0.56565654;stroke:#ffffff;stroke-width:0.07456578;stroke-opacity:0.24747474"
             inkscape:connector-curvature="0"
             d="m 226.47498,-17.636926 c 1.37633,2.38566 -0.35129,5.36777 -3.10023,5.36777 h -35.78307 c -2.75425,0 -4.47389,-2.98673 -3.10022,-5.36777 l 17.89175,-31.02146 c 1.37701,-2.38678 4.8259,-2.38245 6.20045,0 z m -20.99154,-6.41364 c -1.89435,0 -3.43002,1.53568 -3.43002,3.43003 0,1.89435 1.53567,3.43003 3.43002,3.43003 1.89435,0 3.43002,-1.53568 3.43002,-3.43003 0,-1.89435 -1.53567,-3.43003 -3.43002,-3.43003 z m -3.25651,-12.32915 0.55312,10.14094 c 0.0259,0.47455 0.41825,0.84603 0.89345,0.84603 h 3.61987 c 0.47521,0 0.86757,-0.37148 0.89345,-0.84603 l 0.55313,-10.14094 c 0.028,-0.51257 -0.38014,-0.94355 -0.89345,-0.94355 h -4.7262 c -0.51332,0 -0.92134,0.43098 -0.89337,0.94355 z"
             id="path815" />
          <path
             style="fill:#ffffff;fill-opacity:0.56565654;stroke:#ffffff;stroke-width:0.09545185;stroke-opacity:0.24747474"
             inkscape:connector-curvature="0"
             d="m -122.35574,84.336697 -20.85909,18.398353 c -0.15463,0.13936 -0.35222,0.20427 -0.52212,0.31976 v 17.65288 c 0,0.84379 0.68343,1.52724 1.52723,1.52724 h 14.24428 l -3.55368,-6.94986 9.9375,-6.10892 -5.74239,-11.379783 14.13164,13.055923 -9.93748,6.10892 3.81044,5.27372 h 16.81763 c 0.8438,0 1.52724,-0.68345 1.52724,-1.52724 v -17.64906 c -0.16228,-0.11072 -0.35509,-0.17372 -0.50208,-0.30545 z m 26.983259,11.58021 -5.602059,-4.94726 v -13.02441 c 0,-0.84379 -0.68344,-1.52723 -1.52724,-1.52723 h -6.10891 c -0.8438,0 -1.52723,0.68344 -1.52723,1.52723 v 4.9339 l -9.66448,-8.53148 c -0.72829,-0.6548 -1.64082,-0.98316 -2.55334,-0.98411 -0.91251,-7.9e-4 -1.82313,0.32549 -2.54856,0.98029 l -24.43472,21.57307 c -0.62712,0.56413 -0.67962,1.52914 -0.1155,2.157221 l 2.04267,2.273662 c 0.56317,0.62712 1.52914,0.67962 2.15721,0.1155 l 21.88902,-19.308003 c 0.57749,-0.50876 1.44324,-0.50876 2.02072,0 l 21.888989,19.307043 c 0.62712,0.56317 1.59309,0.51162 2.15722,-0.11549 l 2.04266,-2.273672 c 0.56317,-0.627121 0.51163,-1.593091 -0.11645,-2.156261 z"
             id="path826" />
          <path
             style="fill:#ffffff;fill-opacity:0.56565654;stroke:#ffffff;stroke-width:0.09973519;stroke-opacity:0.24747474"
             inkscape:connector-curvature="0"
             d="m -137.29438,295.32955 -1.2387,4.62473 c -0.30021,1.12202 -0.36205,2.28294 -0.24037,3.4299 l -3.51068,2.89032 c -0.65526,0.53957 -1.62668,-0.0429 -1.45812,-0.87468 l 1.53991,-7.64769 c 0.10571,-0.52461 -0.26529,-1.02528 -0.79788,-1.07615 l -7.76539,-0.75299 c -0.84476,-0.0818 -1.12003,-1.17987 -0.4129,-1.64963 l 6.49774,-4.31853 c 0.44482,-0.29621 0.53658,-0.91257 0.19749,-1.32547 l -4.95784,-6.02501 c -0.53957,-0.65526 0.0429,-1.62568 0.87567,-1.45813 l 7.64769,1.53992 c 0.52461,0.10571 1.02528,-0.2653 1.07715,-0.79789 l 0.75299,-7.76539 c 0.0818,-0.84575 1.17987,-1.12002 1.65062,-0.4129 l 4.31854,6.49676 c 0.29621,0.44481 0.91257,0.53658 1.32548,0.19747 l 6.02401,-4.95783 c 0.65525,-0.53957 1.62567,0.0428 1.45813,0.87467 l -1.13001,5.60113 c -0.27028,0.30419 -0.54156,0.60738 -0.78891,0.93751 l -3.20648,4.28562 -1.06815,1.42821 c -3.26435,0.87368 -5.90235,3.44385 -6.78999,6.75605 z m 49.326045,13.21592 -1.238706,4.62373 c -0.31218,1.1649 -0.93551,2.15527 -1.75034,2.92822 a 6.6698915,6.6698915 0 0 1 -0.87369,0.69815 l -1.3953,5.20917 c -0.1137,0.42587 -0.30917,0.80785 -0.56351,1.13498 -0.76496,0.98139 -2.0685,1.46412 -3.34511,1.12202 l -3.082809,-0.82581 c -1.70249,-0.45578 -2.7128,-2.20614 -2.25701,-3.90861 l 0.82581,-3.08282 -24.66253,-6.60845 -0.82582,3.08281 c -0.45578,1.70248 -2.20613,2.71279 -3.90861,2.25701 l -3.08282,-0.82581 c -1.27661,-0.34209 -2.16425,-1.41225 -2.3358,-2.64398 -0.0568,-0.41091 -0.0349,-0.83977 0.0788,-1.26464 l 1.3953,-5.20916 a 6.6443594,6.6443594 0 0 1 -0.40792,-1.04225 c -0.31916,-1.07614 -0.36404,-2.24603 -0.0519,-3.41094 l 1.23871,-4.62472 c 0.5296,-1.97475 1.93088,-3.47378 3.67923,-4.20982 a 6.4165639,6.4165639 0 0 1 1.84411,-0.47075 l 1.80819,-2.41658 3.20649,-4.28562 c 0.34409,-0.45979 0.7171,-0.88765 1.11704,-1.28061 0.79788,-0.7869 1.69849,-1.44017 2.66692,-1.94583 0.48471,-0.25333 0.98638,-0.46975 1.50102,-0.64728 1.03026,-0.35705 2.11338,-0.56151 3.21545,-0.6024 1.10208,-0.0409 2.2251,0.0818 3.33416,0.37899 l 12.235519,3.2783 c 1.10905,0.29721 2.14231,0.752 3.07682,1.33944 a 11.081578,11.081578 0 0 1 3.45982,3.44087 c 0.87967,1.38432 1.46013,2.97609 1.66358,4.68655 l 0.63431,5.31489 0.35806,2.99704 a 6.4319233,6.4319233 0 0 1 2.267976,2.98508 c 0.43784,1.18485 0.5276,2.51233 0.17453,3.82883 z m -38.122785,-11.86649 c -1.85009,-0.49569 -3.41195,0.40292 -3.90662,2.24704 -0.49469,1.84409 0.40991,3.40296 2.25899,3.89864 1.85009,0.49569 4.54195,1.54689 5.03563,-0.29721 0.49469,-1.84411 -1.53891,-5.35279 -3.388,-5.84847 z m 28.984049,2.80954 -0.63432,-5.31489 c -0.0579,-0.48571 -0.18848,-0.95048 -0.38098,-1.38234 -0.57846,-1.29555 -1.71544,-2.2949 -3.133679,-2.67489 l -12.23553,-3.27829 a 4.7880878,4.7880878 0 0 0 -5.07252,1.75633 l -3.20649,4.28562 17.15446,4.5958 z m 1.84411,5.45052 c -1.85009,-0.49567 -5.365759,1.52695 -5.859439,3.37006 -0.49369,1.8441 2.362719,2.27995 4.212809,2.77563 1.85009,0.49568 3.41194,-0.40293 3.90663,-2.24703 0.49369,-1.84311 -0.40991,-3.40296 -2.26,-3.89866 z"
             id="path848" />
          <path
             style="fill:#ffffff;fill-opacity:0.56565654;stroke:#ffffff;stroke-width:0.0886438;stroke-opacity:0.24747474"
             inkscape:connector-curvature="0"
             d="m -34.205893,58.114906 c 6.267121,0 11.346405,-5.079292 11.346405,-11.346414 0,-6.267113 -5.079284,-11.346405 -11.346405,-11.346405 -6.267114,0 -11.346405,5.079292 -11.346405,11.346405 0,6.267122 5.079291,11.346414 11.346405,11.346414 z m 7.94249,2.836601 h -1.480358 c -1.967888,0.904165 -4.157393,1.418301 -6.462132,1.418301 -2.30474,0 -4.485373,-0.514136 -6.462133,-1.418301 h -1.48035 c -6.577367,0 -11.913727,5.336352 -11.913727,11.913728 v 3.68758 c 0,2.349062 1.90584,4.254902 4.254903,4.254902 h 31.202615 c 2.349062,0 4.254909,-1.90584 4.254909,-4.254902 v -3.68758 c 0,-6.577376 -5.336359,-11.913728 -11.913727,-11.913728 z"
             id="path859" />
          <path
             style="fill:#ffffff;fill-opacity:0.56565654;stroke:#ffffff;stroke-width:0.10629527;stroke-opacity:0.24747474"
             inkscape:connector-curvature="0"
             d="m 104.07343,116.1949 v 4.85919 c 0,4.28221 -10.664909,7.77475 -23.810129,7.77475 -13.145213,0 -23.810137,-3.49254 -23.810137,-7.77475 v -4.85919 c 0,-4.28221 10.664924,-7.77475 23.810137,-7.77475 13.14522,0 23.810129,3.49254 23.810129,7.77475 z m 0,10.93322 v 10.93321 c 0,4.28222 -10.664909,7.77476 -23.810129,7.77476 -13.145213,0 -23.810137,-3.49254 -23.810137,-7.77476 v -10.93321 c 5.115463,3.52294 14.478267,5.16297 23.810137,5.16297 9.33187,0 18.69458,-1.64003 23.810129,-5.16297 z m 0,17.00724 v 10.93322 c 0,4.28221 -10.664909,7.77475 -23.810129,7.77475 -13.145213,0 -23.810137,-3.49254 -23.810137,-7.77475 v -10.93322 c 5.115463,3.52295 14.478267,5.16298 23.810137,5.16298 9.33187,0 18.69458,-1.64003 23.810129,-5.16298 z"
             id="path870" />
          <path
             transform="translate(-30.238099,31.749997)"
             inkscape:original-d="M 21.922619,45.267856 80.31994,78.529762"
             inkscape:path-effect="#path-effect883;#path-effect885"
             inkscape:connector-curvature="0"
             id="path881"
             d="M 21.922619,45.267856 C 41.388393,56.355158 60.854166,67.44246 80.31994,78.529762"
             style="fill:#ffffff;fill-opacity:0.56565654;stroke:#ffffff;stroke-width:4.76499987;stroke-linecap:butt;stroke-linejoin:round;stroke-miterlimit:4;stroke-dasharray:9.5300001, 4.76500005000000026;stroke-dashoffset:0;stroke-opacity:0.24747474"
             sodipodi:nodetypes="cc" />
          <path
             sodipodi:nodetypes="cc"
             inkscape:original-d="M 40.584639,28.592047 39.08374,85.416038"
             inkscape:path-effect="#path-effect883;#path-effect885"
             inkscape:connector-curvature="0"
             id="path881-1"
             d="m 40.584639,28.592047 c -0.5003,18.94133 -1.000599,37.882661 -1.500899,56.823991"
             style="fill:#ffffff;fill-opacity:0.56565654;stroke:#ffffff;stroke-width:4.76499987;stroke-linecap:butt;stroke-linejoin:round;stroke-miterlimit:4;stroke-dasharray:9.5300001, 4.76500005000000026;stroke-dashoffset:0;stroke-opacity:0.24747474"
             transform="rotate(-7.4015521,226.131,-171.35905)" />
          <path
             style="fill:#ffffff;fill-opacity:0.56565654;stroke:#ffffff;stroke-width:0.0886438;stroke-opacity:0.24747474"
             inkscape:connector-curvature="0"
             d="m 58.14042,25.182652 c 6.26712,0 11.34638,-5.079292 11.34638,-11.346413 0,-6.267114 -5.07926,-11.346406 -11.34638,-11.346406 -6.267114,0 -11.346406,5.079292 -11.346406,11.346406 0,6.267121 5.079292,11.346413 11.346406,11.346413 z m 7.94248,2.836601 h -1.48035 c -1.96789,0.904166 -4.15739,1.418303 -6.46213,1.418303 -2.30474,0 -4.485374,-0.514137 -6.462133,-1.418303 h -1.48035 c -6.577368,0 -11.913728,5.336353 -11.913728,11.913728 v 3.68758 c 0,2.349063 1.90584,4.254901 4.254903,4.254901 h 31.202589 c 2.34906,0 4.25491,-1.905838 4.25491,-4.254901 v -3.68758 c 0,-6.577375 -5.33636,-11.913728 -11.913711,-11.913728 z"
             id="path859-7" />
          <path
             style="fill:#ffffff;fill-opacity:0.56565654;stroke:#ffffff;stroke-width:0.0886438;stroke-opacity:0.24747474"
             inkscape:connector-curvature="0"
             d="m 181.48387,74.025054 c 6.26712,0 11.34641,-5.07929 11.34641,-11.346412 0,-6.267113 -5.07929,-11.346405 -11.34641,-11.346405 -6.26711,0 -11.3464,5.079292 -11.3464,11.346405 0,6.267122 5.07929,11.346412 11.3464,11.346412 z m 7.94249,2.8366 H 187.946 c -1.96788,0.90417 -4.15739,1.41831 -6.46213,1.41831 -2.30474,0 -4.48537,-0.51414 -6.46213,-1.41831 h -1.48035 c -6.57737,0 -11.91373,5.33636 -11.91373,11.91373 v 3.68758 c 0,2.34906 1.90584,4.2549 4.2549,4.2549 h 31.20262 c 2.34906,0 4.25491,-1.90584 4.25491,-4.2549 v -3.68758 c 0,-6.57737 -5.33636,-11.91373 -11.91373,-11.91373 z"
             id="path859-7-2" />
          <path
             sodipodi:nodetypes="cc"
             inkscape:original-d="M 99.93385,112.77173 49.88313,136.02434"
             inkscape:path-effect="#path-effect883;#path-effect885"
             inkscape:connector-curvature="0"
             id="path881-1-5"
             d="M 99.93385,112.77173 C 83.250277,120.5226 66.566703,128.27347 49.88313,136.02434"
             style="fill:#ffffff;fill-opacity:0.56565654;stroke:#ffffff;stroke-width:4.76499987;stroke-linecap:butt;stroke-linejoin:round;stroke-miterlimit:4;stroke-dasharray:9.5300001, 4.76500005000000026;stroke-dashoffset:0;stroke-opacity:0.24747474"
             transform="translate(58.191477,-21.038385)" />
          <path
             sodipodi:nodetypes="cc"
             inkscape:original-d="M 99.93385,112.77173 49.174177,136.3438"
             inkscape:path-effect="#path-effect883;#path-effect885"
             inkscape:connector-curvature="0"
             id="path881-1-5-4"
             d="M 99.93385,112.77173 C 83.013958,120.62909 66.094069,128.48644 49.174177,136.3438"
             style="fill:#ffffff;fill-opacity:0.56565654;stroke:#ffffff;stroke-width:4.76499987;stroke-linecap:butt;stroke-linejoin:round;stroke-miterlimit:4;stroke-dasharray:9.5300001, 4.76500005000000026;stroke-dashoffset:0;stroke-opacity:0.24747474"
             transform="rotate(131.25873,157.56891,99.495006)" />
          <path
             sodipodi:nodetypes="cc"
             inkscape:original-d="M 145.18343,90.632795 45.536404,137.53624"
             inkscape:path-effect="#path-effect883;#path-effect885"
             inkscape:connector-curvature="0"
             id="path881-1-5-1"
             d="M 145.18343,90.632795 C 111.96775,106.26728 78.752078,121.90176 45.536404,137.53624"
             style="fill:#ffffff;fill-opacity:0.56565654;stroke:#ffffff;stroke-width:4.76499987;stroke-linecap:butt;stroke-linejoin:round;stroke-miterlimit:4;stroke-dasharray:9.5300001, 4.76500005000000026;stroke-dashoffset:0;stroke-opacity:0.24747474"
             transform="rotate(49.269371,69.990792,209.85449)" />
          <path
             sodipodi:nodetypes="cc"
             inkscape:original-d="M 98.905936,109.01368 49.779235,134.28484"
             inkscape:path-effect="#path-effect883;#path-effect885"
             inkscape:connector-curvature="0"
             id="path881-1-5-5"
             d="M 98.905936,109.01368 C 82.530369,117.4374 66.154802,125.86112 49.779235,134.28484"
             style="fill:#ffffff;fill-opacity:0.56565654;stroke:#ffffff;stroke-width:4.76499987;stroke-linecap:butt;stroke-linejoin:round;stroke-miterlimit:4;stroke-dasharray:9.5300001, 4.76500005000000026;stroke-dashoffset:0;stroke-opacity:0.24747474"
             transform="rotate(11.016362,416.0919,-264.40356)" />
          <path
             style="fill:#ffffff;fill-opacity:0.56565654;stroke:#ffffff;stroke-width:0.08542923;stroke-opacity:0.24747474"
             inkscape:connector-curvature="0"
             d="m 6.315713,202.39168 h -1.36686 v -9.2349 c 0,-1.08495 -0.43569,-2.12719 -1.20455,-2.89605 l -8.53439,-8.53438 c -0.76885,-0.76887 -1.8111,-1.20455 -2.89605,-1.20455 h -3.76741 v -4.10061 c 0,-2.26387 -1.83674,-4.1006 -4.10061,-4.1006 h -27.33736 c -2.26389,0 -4.10061,1.83673 -4.10061,4.1006 v 27.33736 c 0,2.26387 1.83672,4.10061 4.10061,4.10061 h 1.36687 c 0,4.52774 3.673451,8.2012 8.2012,8.2012 4.52774,0 8.201201,-3.67346 8.201201,-8.2012 h 10.934949 c 0,4.52774 3.67346,8.2012 8.2012,8.2012 4.52776,0 8.20121,-3.67346 8.20121,-8.2012 h 4.1006 c 0.75178,0 1.36688,-0.6151 1.36688,-1.36687 v -2.73374 c 0,-0.75178 -0.6151,-1.36687 -1.36688,-1.36687 z m -39.639159,9.56808 c -2.26388,0 -4.1006,-1.83673 -4.1006,-4.1006 0,-2.26389 1.83672,-4.10061 4.1006,-4.10061 2.263869,0 4.10061,1.83672 4.10061,4.10061 0,2.26387 -1.836741,4.1006 -4.10061,4.1006 z m 12.30181,-21.18645 c 0,0.37589 -0.30754,0.68343 -0.68343,0.68343 h -4.78405 v 4.78403 c 0,0.37589 -0.30753,0.68344 -0.68343,0.68344 h -4.1006 c -0.37589,0 -0.68343,-0.30755 -0.68343,-0.68344 v -4.78403 h -4.78404 c -0.37589,0 -0.68343,-0.30754 -0.68343,-0.68343 v -4.10061 c 0,-0.37589 0.30754,-0.68344 0.68343,-0.68344 h 4.78404 v -4.78403 c 0,-0.37589 0.30754,-0.68343 0.68343,-0.68343 h 4.1006 c 0.3759,0 0.68343,0.30754 0.68343,0.68343 v 4.78403 h 4.78405 c 0.37589,0 0.68343,0.30755 0.68343,0.68344 z m 15.035539,21.18645 c -2.26387,0 -4.1006,-1.83673 -4.1006,-4.1006 0,-2.26389 1.83673,-4.10061 4.1006,-4.10061 2.26389,0 4.1006,1.83672 4.1006,4.10061 0,2.26387 -1.83671,4.1006 -4.1006,4.1006 z m 6.83435,-17.76929 h -12.3018 v -9.56807 h 3.76741 l 8.53439,8.53438 z"
             id="path837-1" />
          <path
             sodipodi:nodetypes="cc"
             inkscape:original-d="M 39.848654,94.164834 30.567089,149.61463"
             inkscape:path-effect="#path-effect883;#path-effect885"
             inkscape:connector-curvature="0"
             id="path881-1-5-1-2"
             d="M 39.848654,94.164834 C 36.754799,112.6481 33.660945,131.13136 30.567089,149.61463"
             style="fill:#ffffff;fill-opacity:0.56565654;stroke:#ffffff;stroke-width:4.76499987;stroke-linecap:butt;stroke-linejoin:round;stroke-miterlimit:4;stroke-dasharray:9.5300001, 4.76500005000000026;stroke-dashoffset:0;stroke-opacity:0.24747474"
             transform="rotate(49.269371,-17.866976,134.51269)" />
          <path
             sodipodi:nodetypes="cc"
             inkscape:original-d="M 36.908184,90.394927 29.696015,154.10188"
             inkscape:path-effect="#path-effect883;#path-effect885"
             inkscape:connector-curvature="0"
             id="path881-1-5-1-2-2"
             d="M 36.908184,90.394927 C 34.504127,111.63058 32.100071,132.86623 29.696015,154.10188"
             style="fill:#ffffff;fill-opacity:0.56565654;stroke:#ffffff;stroke-width:4.76499987;stroke-linecap:butt;stroke-linejoin:round;stroke-miterlimit:4;stroke-dasharray:9.53, 4.76499999999999968;stroke-dashoffset:2.38249993;stroke-opacity:0.24747474"
             transform="rotate(125.96874,-27.168034,108.16461)" />
          <path
             sodipodi:nodetypes="cc"
             inkscape:original-d="M 38.126071,101.12648 23.299019,181.30185"
             inkscape:path-effect="#path-effect883;#path-effect885"
             inkscape:connector-curvature="0"
             id="path881-1-5-1-2-2-5"
             d="m 38.126071,101.12648 c -4.94235,26.72512 -9.884702,53.45025 -14.827052,80.17537"
             style="fill:#ffffff;fill-opacity:0.56565654;stroke:#ffffff;stroke-width:4.76499987;stroke-linecap:butt;stroke-linejoin:round;stroke-miterlimit:4;stroke-dasharray:9.5300001, 4.76500005000000026;stroke-dashoffset:0;stroke-opacity:0.24747474"
             transform="rotate(24.56733,-268.48179,-27.602628)" />
          <path
             style="fill:#ffffff;fill-opacity:0.56565654;stroke:#ffffff;stroke-width:0.0971095;stroke-opacity:0.24747474"
             inkscape:connector-curvature="0"
             d="m 94.505937,251.58059 c 0,2.5734 2.08786,4.66126 4.661258,4.66126 h 34.182545 c 2.57341,0 4.66126,-2.08786 4.66126,-4.66126 V 225.1668 H 94.505937 Z m 31.075053,-19.03346 c 0,-0.64093 0.52439,-1.16531 1.16531,-1.16531 h 3.88438 c 0.64092,0 1.16531,0.52438 1.16531,1.16531 v 3.88438 c 0,0.64092 -0.52439,1.16531 -1.16531,1.16531 h -3.88438 c -0.64092,0 -1.16531,-0.52439 -1.16531,-1.16531 z m 0,12.43001 c 0,-0.64092 0.52439,-1.16531 1.16531,-1.16531 h 3.88438 c 0.64092,0 1.16531,0.52439 1.16531,1.16531 v 3.88438 c 0,0.64093 -0.52439,1.16531 -1.16531,1.16531 h -3.88438 c -0.64092,0 -1.16531,-0.52438 -1.16531,-1.16531 z m -12.43002,-12.43001 c 0,-0.64093 0.52439,-1.16531 1.16531,-1.16531 h 3.88438 c 0.64093,0 1.16531,0.52438 1.16531,1.16531 v 3.88438 c 0,0.64092 -0.52438,1.16531 -1.16531,1.16531 h -3.88438 c -0.64092,0 -1.16531,-0.52439 -1.16531,-1.16531 z m 0,12.43001 c 0,-0.64092 0.52439,-1.16531 1.16531,-1.16531 h 3.88438 c 0.64093,0 1.16531,0.52439 1.16531,1.16531 v 3.88438 c 0,0.64093 -0.52438,1.16531 -1.16531,1.16531 h -3.88438 c -0.64092,0 -1.16531,-0.52438 -1.16531,-1.16531 z m -12.43001,-12.43001 c 0,-0.64093 0.52438,-1.16531 1.16531,-1.16531 h 3.88438 c 0.64092,0 1.16531,0.52438 1.16531,1.16531 v 3.88438 c 0,0.64092 -0.52439,1.16531 -1.16531,1.16531 h -3.88438 c -0.64093,0 -1.16531,-0.52439 -1.16531,-1.16531 z m 0,12.43001 c 0,-0.64092 0.52438,-1.16531 1.16531,-1.16531 h 3.88438 c 0.64092,0 1.16531,0.52439 1.16531,1.16531 v 3.88438 c 0,0.64093 -0.52439,1.16531 -1.16531,1.16531 h -3.88438 c -0.64093,0 -1.16531,-0.52438 -1.16531,-1.16531 z m 32.62878,-32.24035 h -4.66125 v -4.66126 c 0,-0.85456 -0.69919,-1.55375 -1.55375,-1.55375 h -3.10751 c -0.85456,0 -1.55375,0.69919 -1.55375,1.55375 v 4.66126 h -12.43002 v -4.66126 c 0,-0.85456 -0.69919,-1.55375 -1.55375,-1.55375 h -3.10751 c -0.85456,0 -1.55375,0.69919 -1.55375,1.55375 v 4.66126 h -4.661255 c -2.573398,0 -4.661258,2.08786 -4.661258,4.66126 v 4.66125 H 138.011 v -4.66125 c 0,-2.5734 -2.08785,-4.66126 -4.66126,-4.66126 z"
             id="path1106" />
          <path
             sodipodi:nodetypes="cc"
             inkscape:original-d="M 39.848654,94.164834 35.947253,134.02628"
             inkscape:path-effect="#path-effect883;#path-effect885"
             inkscape:connector-curvature="0"
             id="path881-1-5-1-2-7"
             d="M 39.848654,94.164834 C 38.548187,107.45198 37.24772,120.73913 35.947253,134.02628"
             style="fill:#ffffff;fill-opacity:0.56565654;stroke:#ffffff;stroke-width:4.76499987;stroke-linecap:butt;stroke-linejoin:round;stroke-miterlimit:4;stroke-dasharray:9.5300001, 4.76500005000000026;stroke-dashoffset:0;stroke-opacity:0.24747474"
             transform="rotate(-26.437962,218.59859,22.320346)" />
          <path
             id="path1160"
             d="m 252.31203,193.7317 -1.09309,-2.73272 -1.93819,-4.84598 c -1.66395,-4.15939 -5.63273,-6.84641 -10.11304,-6.84641 h -12.35077 c -4.47934,0 -8.44909,2.68702 -10.11304,6.84641 l -1.9382,4.84598 -1.09309,2.73272 c -2.34567,0.89178 -4.02032,3.14409 -4.02032,5.80292 v 4.668 c 0,1.56768 0.59907,2.98266 1.55601,4.0777 v 5.25831 c 0,1.71841 1.39359,3.11201 3.112,3.11201 h 3.112 c 1.71841,0 3.112,-1.3936 3.112,-3.11201 v -3.112 h 24.89604 v 3.112 c 0,1.71841 1.39359,3.11201 3.112,3.11201 h 3.11201 c 1.7184,0 3.112,-1.3936 3.112,-3.11201 v -5.25831 c 0.95694,-1.09406 1.556,-2.50905 1.556,-4.0777 v -4.668 c 0,-2.65883 -1.67464,-4.91114 -4.02032,-5.80292 z m -29.82952,-5.26706 c 0.70895,-1.7719 2.42541,-2.93405 4.33443,-2.93405 h 12.35077 c 1.90902,0 3.62548,1.16215 4.33443,2.93405 l 1.9382,4.84596 H 220.5443 Z m -5.05021,15.71853 c -1.8672,0 -3.112,-1.24091 -3.112,-3.10227 0,-1.86138 1.2448,-3.10229 3.112,-3.10229 1.8672,0 4.66801,2.79206 4.66801,4.65343 0,1.86136 -2.80081,1.55113 -4.66801,1.55113 z m 31.12004,0 c -1.8672,0 -4.66801,0.31023 -4.66801,-1.55113 0,-1.86137 2.80081,-4.65343 4.66801,-4.65343 1.86721,0 3.11201,1.24091 3.11201,3.10229 0,1.86136 -1.2448,3.10227 -3.11201,3.10227 z"
             inkscape:connector-curvature="0"
             style="fill:#ffffff;fill-opacity:0.56565654;stroke:#ffffff;stroke-width:0.09725011;stroke-opacity:0.24747474" />
        </g>
      </g>
    </g>
  </g>
</svg>
